<svg xmlns="http://www.w3.org/2000/svg" width="121.81" height="99.21" baseProfile="full"><path d="M84.4 85.18a42.63 42.63 0 0 1-61.66-16.57 96.52 96.52 0 0 1-9.66-5.78 49.63 49.63 0 0 0 82.6 22.14c-3.5.3-7.28.37-11.29.21zM19.19 58.45a78.08 78.08 0 0 1-7.78-5.39C2.88 46.28-1.5 39.19.13 33.16c1.63-6 8.97-9.88 19.72-11.41a49.6 49.6 0 0 1 90.55 24.61c8.53 6.78 12.92 13.87 11.28 19.9-1.64 6.03-9.05 9.92-19.89 11.43-2.92.4-6.08.64-9.45.7-10.97.19-24.1-1.5-37.82-5.24-13.75-3.74-25.96-8.95-35.33-14.7zM97.85 70.9a42.43 42.43 0 0 0 5.68-21.02v-.27a42.63 42.63 0 0 0-85.26-.03c8.88 5.94 22.3 11.8 37.83 16.03 16.02 4.36 31 6.09 41.75 5.29zm8.52-1.42c4.27-1.26 7.03-3.24 7.76-5.94.75-2.74-.68-5.91-3.85-9.22l-.06.65a49.3 49.3 0 0 1-3.85 14.5zm-90.55-40.6l.36-.75c-5.04 1.24-8.26 3.33-9.07 6.28-.8 2.92.88 6.32 4.47 9.85a49.28 49.28 0 0 1 4.24-15.37z"/></svg>