<?xml version="1.0" encoding="utf-8"?>
<!DOCTYPE svg PUBLIC "-//W3C//DTD SVG 1.1//EN" "http://www.w3.org/Graphics/SVG/1.1/DTD/svg11.dtd">
<svg xmlns="http://www.w3.org/2000/svg" xmlns:xlink="http://www.w3.org/1999/xlink" version="1.1" baseProfile="full" width="556.587" height="68.3693" viewBox="0 0 556.59 68.37" enable-background="new 0 0 556.59 68.37" xml:space="preserve">
	<g>
		<path fill="#FFFFFF" fill-opacity="1" stroke-width="0.2" stroke-linejoin="round" d="M 163.192,44.1015L 162.809,21.9897L 169.787,21.9897L 169.787,49.8759L 159.754,49.8759L 152.794,26.9928L 152.637,26.9928L 153.027,49.8759L 146.103,49.8759L 146.103,21.9897L 156.558,21.9897L 163.04,44.1015L 163.192,44.1015 Z "/>
		<path fill="#FFFFFF" fill-opacity="1" stroke-width="0.2" stroke-linejoin="round" d="M 36.408,24.5893L 32.5528,50.1645L 24.9402,50.1645L 30.1593,21.9897L 42.6988,21.9897L 47.8908,50.1645L 40.3256,50.1645L 36.5666,24.5893L 36.408,24.5893 Z "/>
		<path fill="#FFFFFF" fill-opacity="1" stroke-width="0.2" stroke-linejoin="round" d="M 69.2522,43.5321L 72.731,21.9892L 84.2207,21.9892L 84.8435,50.164L 77.7948,50.164L 77.6125,24.8283L 77.4588,24.8349L 72.7546,50.164L 65.608,50.164L 60.8954,24.8283L 60.7401,24.8283L 60.5628,50.164L 53.5192,50.164L 54.1421,21.9892L 65.6316,21.9892L 69.0986,43.5321L 69.2522,43.5321 Z "/>
		<path fill="#FFFFFF" fill-opacity="1" stroke-width="0.2" stroke-linejoin="round" d="M 13.083,42.2101C 13.3564,42.8903 13.2653,43.768 13.137,44.2997C 12.9075,45.2196 12.2745,46.1784 10.3925,46.1784C 8.63367,46.1784 7.56012,45.1706 7.56012,43.6362L 7.55338,40.9003L -6.10352e-005,40.9003L -6.10352e-005,43.081C -6.10352e-005,49.3634 4.9422,51.2524 10.2355,51.2524C 15.338,51.2524 19.5241,49.5219 20.1992,44.8229C 20.5436,42.3837 20.2904,40.789 20.1689,40.1947C 18.9755,34.2904 8.28934,32.5434 7.48758,29.235C 7.35254,28.6579 7.38293,28.0856 7.45718,27.7616C 7.66141,26.8583 8.27078,25.871 10.0313,25.871C 11.6871,25.871 12.6509,26.8888 12.6509,28.4216L 12.6509,30.1584L 19.6811,30.1584L 19.6811,28.1903C 19.6811,22.0495 14.1717,21.0893 10.1798,21.0893C 5.17175,21.0893 1.08533,22.7502 0.330841,27.3481C 0.124878,28.5903 0.0979004,29.7177 0.398346,31.1408C 1.61868,36.8981 11.6314,38.5658 13.083,42.2101 Z "/>
		<path fill="#FFFFFF" fill-opacity="1" stroke-width="0.2" stroke-linejoin="round" d="M 104.688,42.154C 104.952,42.829 104.871,43.695 104.741,44.225C 104.513,45.1532 103.882,46.08 102.023,46.08C 100.275,46.08 99.2179,45.0927 99.2179,43.5668L 99.2129,40.8578L 91.7287,40.8578L 91.7253,43.0114C 91.7253,49.2382 96.6253,51.1 101.87,51.1C 106.915,51.1 111.065,49.3952 111.725,44.7382C 112.068,42.3295 111.816,40.748 111.697,40.1503C 110.517,34.3119 99.9336,32.5802 99.1487,29.3056C 99.0137,28.7402 99.0508,28.173 99.115,27.8573C 99.3142,26.9577 99.9167,25.9787 101.664,25.9787C 103.299,25.9787 104.256,26.9862 104.256,28.4936L 104.256,30.2204L 111.214,30.2204L 111.214,28.2743C 111.214,22.1977 105.755,21.2492 101.814,21.2492C 96.8531,21.2492 92.8005,22.873 92.0628,27.4355C 91.8536,28.6694 91.8249,29.7865 92.1253,31.1928C 93.3355,36.8979 103.247,38.5502 104.688,42.154 Z "/>
		<path fill="#FFFFFF" fill-opacity="1" stroke-width="0.2" stroke-linejoin="round" d="M 128.333,45.9286C 130.292,45.9286 130.902,44.6003 131.04,43.8981C 131.102,43.5942 131.111,43.184 131.109,42.8195L 131.109,21.9838L 138.251,21.9838L 138.251,42.1764C 138.258,42.6979 138.204,43.7597 138.173,44.0382C 137.684,49.2926 133.518,50.9906 128.333,50.9906C 123.156,50.9906 118.993,49.2926 118.509,44.0382C 118.482,43.7597 118.428,42.6979 118.441,42.1764L 118.441,21.9838L 125.563,21.9838L 125.563,42.8195C 125.556,43.184 125.569,43.5942 125.63,43.8981C 125.77,44.6003 126.38,45.9286 128.333,45.9286 Z "/>
		<path fill="#FFFFFF" fill-opacity="1" stroke-width="0.2" stroke-linejoin="round" d="M 187.119,45.641C 189.153,45.641 189.867,44.3564 189.999,43.6037C 190.053,43.2848 190.073,42.8898 190.063,42.5319L 190.063,38.4472L 187.178,38.4472L 187.178,34.3271L 197.147,34.3271L 197.147,41.8854C 197.144,42.4137 197.139,42.8053 197.061,43.7455C 196.59,48.8735 192.136,50.7082 187.146,50.7082C 182.154,50.7082 177.701,48.8735 177.238,43.7455C 177.157,42.8053 177.144,42.4137 177.14,41.8854L 177.144,30.0312C 177.144,29.5248 177.203,28.6405 177.26,28.1879C 177.887,22.9032 182.154,21.2238 187.15,21.2238C 192.143,21.2238 196.523,22.8896 197.044,28.1879C 197.125,29.0673 197.093,30.0312 197.098,30.0312L 197.098,30.9696L 189.999,30.9696L 189.999,29.3866C 189.999,29.3866 189.992,28.7196 189.906,28.3266C 189.78,27.707 189.246,26.2756 187.091,26.2756C 185.045,26.2756 184.441,27.631 184.285,28.3266C 184.204,28.6842 184.171,29.1855 184.171,29.6464L 184.171,42.5319C 184.167,42.8898 184.184,43.2848 184.235,43.6037C 184.37,44.3564 185.08,45.641 187.119,45.641 Z "/>
		<rect x="213.794" y="3.29606" fill="#FFFFFF" fill-opacity="1" stroke-width="0.2" stroke-linejoin="round" width="12.1057" height="64.9812"/>
		<path fill="#FFFFFF" fill-opacity="1" stroke-width="0.2" stroke-linejoin="round" d="M 233.992,16.2023L 245.922,16.2023L 245.922,23.3168C 247.64,21.143 249.82,19.401 252.465,18.0859C 255.101,16.7712 258.116,16.1112 261.498,16.1112C 267.968,16.1112 273.032,18.0356 276.674,21.8822C 280.325,25.7255 282.152,31.0812 282.152,37.9579L 282.152,68.2778L 269.96,68.2778L 269.96,39.3149C 269.96,35.3703 268.974,32.256 267.018,29.9623C 265.061,27.6735 262.121,26.529 258.21,26.529C 254.762,26.529 251.87,27.7172 249.522,30.0939C 247.183,32.4738 246.01,35.8935 246.01,40.3598L 246.01,68.2778L 233.992,68.2778L 233.992,16.2023 Z "/>
		<path fill="#FFFFFF" fill-opacity="1" stroke-width="0.2" stroke-linejoin="round" d="M 284.999,16.2023L 293.901,16.2023L 293.901,8.28093L 306.006,-8.01086e-005L 306.006,16.2023L 316.598,16.2023L 316.598,26.9745L 306.006,26.9745L 306.006,46.4701C 306.006,48.7267 306.123,50.5512 306.361,51.9423C 306.6,53.3363 307.093,54.4049 307.831,55.1476C 308.572,55.8903 309.644,56.3798 311.035,56.6176C 312.432,56.8539 314.287,56.9738 316.598,56.9738L 316.598,68.2778L 314.91,68.2778C 310.874,68.2778 307.507,67.9233 304.803,67.2094C 302.102,66.4955 299.957,65.297 298.348,63.6056C 296.748,61.9145 295.604,59.6864 294.923,56.9301C 294.243,54.1703 293.901,50.7099 293.901,46.5561L 293.901,26.9745L 284.999,26.9745L 284.999,16.2023 Z "/>
		<path fill="#FFFFFF" fill-opacity="1" stroke-width="0.2" stroke-linejoin="round" d="M 345.981,26.7065C 342.365,26.7065 339.229,27.5082 336.593,29.1049C 333.948,30.7052 332.093,32.8134 331.029,35.4281L 360.585,35.4281C 359.694,32.5722 357.97,30.4013 355.42,28.9228C 352.869,27.4457 349.718,26.7065 345.981,26.7065 Z M 346.43,68.3693C 342.337,68.3693 338.591,67.6943 335.207,66.3505C 331.831,65.007 328.935,63.164 326.529,60.8158C 324.133,58.4731 322.262,55.7133 320.922,52.5365C 319.589,49.3634 318.924,45.974 318.924,42.3686C 318.924,38.7109 319.619,35.2778 321.017,32.0707C 322.408,28.8688 324.32,26.0956 326.754,23.7509C 329.188,21.4032 332.049,19.5463 335.345,18.1723C 338.642,16.8002 342.185,16.1115 345.981,16.1115C 349.841,16.1115 353.413,16.7394 356.708,17.9919C 360.006,19.2426 362.837,20.9945 365.215,23.248C 367.583,25.5014 369.436,28.1598 370.776,31.2201C 372.11,34.2802 372.777,37.6171 372.777,41.2343L 372.777,45.4914L 330.405,45.4914C 331.239,49.1708 333.041,52.1383 335.83,54.3901C 338.62,56.6469 342.154,57.7743 346.43,57.7743C 349.813,57.7743 352.746,56.9455 355.238,55.2812C 357.731,53.6186 359.599,51.3957 360.846,48.6073L 370.726,54.3039C 368.474,58.517 365.314,61.913 361.252,64.4972C 357.18,67.0763 352.247,68.3693 346.43,68.3693 Z "/>
		<path fill="#FFFFFF" fill-opacity="1" stroke-width="0.2" stroke-linejoin="round" d="M 378.116,16.2023L 390.046,16.2023L 390.046,23.9465C 392.482,18.7848 396.929,16.2023 403.399,16.2023C 405.298,16.2023 407.006,16.4132 408.52,16.8251C 410.026,17.2421 411.381,17.7756 412.569,18.4269L 408.027,29.8222C 407.136,29.2314 406.144,28.7384 405.043,28.3554C 403.949,27.9672 402.536,27.7748 400.82,27.7748C 397.312,27.7748 394.662,28.767 392.85,30.7572C 391.04,32.7455 390.134,35.9948 390.134,40.5033L 390.134,68.2778L 378.116,68.2778L 378.116,16.2023 Z "/>
		<path fill="#FFFFFF" fill-opacity="1" stroke-width="0.2" stroke-linejoin="round" d="M 416.481,16.2023L 428.413,16.2023L 428.413,23.3168C 430.13,21.143 432.31,19.401 434.954,18.0859C 437.592,16.7712 440.605,16.1112 443.987,16.1112C 450.457,16.1112 455.521,18.0356 459.165,21.8822C 462.816,25.7255 464.641,31.0812 464.641,37.9579L 464.641,68.2778L 452.451,68.2778L 452.451,39.3149C 452.451,35.3703 451.465,32.256 449.507,29.9623C 447.552,27.6735 444.61,26.529 440.699,26.529C 437.251,26.529 434.361,27.7172 432.013,30.0939C 429.672,32.4738 428.499,35.8935 428.499,40.3598L 428.499,68.2778L 416.481,68.2778L 416.481,16.2023 Z "/>
		<path fill="#FFFFFF" fill-opacity="1" stroke-width="0.2" stroke-linejoin="round" d="M 496.951,26.7065C 493.335,26.7065 490.199,27.5082 487.562,29.1049C 484.917,30.7052 483.062,32.8134 481.999,35.4281L 511.554,35.4281C 510.665,32.5722 508.941,30.4013 506.391,28.9228C 503.841,27.4457 500.689,26.7065 496.951,26.7065 Z M 497.401,68.3693C 493.308,68.3693 489.561,67.6943 486.178,66.3505C 482.802,65.007 479.904,63.164 477.501,60.8158C 475.102,58.4731 473.232,55.7133 471.892,52.5365C 470.56,49.3634 469.893,45.974 469.893,42.3686C 469.893,38.7109 470.589,35.2778 471.988,32.0707C 473.377,28.8688 475.291,26.0956 477.724,23.7509C 480.159,21.4032 483.02,19.5463 486.317,18.1723C 489.611,16.8002 493.154,16.1115 496.951,16.1115C 500.813,16.1115 504.382,16.7394 507.679,17.9919C 510.977,19.2426 513.808,20.9945 516.184,23.248C 518.554,25.5014 520.407,28.1598 521.748,31.2201C 523.079,34.2802 523.748,37.6171 523.748,41.2343L 523.748,45.4914L 481.374,45.4914C 482.21,49.1708 484.013,52.1383 486.801,54.3901C 489.591,56.6469 493.126,57.7743 497.401,57.7743C 500.784,57.7743 503.717,56.9455 506.209,55.2812C 508.702,53.6186 510.569,51.3957 511.816,48.6073L 521.697,54.3039C 519.444,58.517 516.286,61.913 512.223,64.4972C 508.152,67.0763 503.218,68.3693 497.401,68.3693 Z "/>
		<path fill="#FFFFFF" fill-opacity="1" stroke-width="0.2" stroke-linejoin="round" d="M 524.986,16.2023L 533.888,16.2023L 533.888,8.28093L 545.994,-8.01086e-005L 545.994,16.2023L 556.587,16.2023L 556.587,26.9745L 545.994,26.9745L 545.994,46.4701C 545.994,48.7267 546.112,50.5512 546.35,51.9423C 546.589,53.3363 547.082,54.4049 547.82,55.1476C 548.559,55.8903 549.631,56.3798 551.022,56.6176C 552.421,56.8539 554.276,56.9738 556.587,56.9738L 556.587,68.2778L 554.899,68.2778C 550.863,68.2778 547.494,67.9233 544.792,67.2094C 542.089,66.4955 539.946,65.297 538.337,63.6056C 536.737,61.9145 535.591,59.6864 534.911,56.9301C 534.23,54.1703 533.888,50.7099 533.888,46.5561L 533.888,26.9745L 524.986,26.9745L 524.986,16.2023 Z "/>
	</g>
</svg>
